<svg width="128" height="128" viewBox="0 0 128 128" fill="none" xmlns="http://www.w3.org/2000/svg">
  <defs>
    <linearGradient id="mark-bg" x1="16" y1="14" x2="114" y2="116" gradientUnits="userSpaceOnUse">
      <stop stop-color="#07121D" />
      <stop offset="1" stop-color="#061926" />
    </linearGradient>
    <linearGradient id="mark-stroke" x1="20" y1="18" x2="112" y2="110" gradientUnits="userSpaceOnUse">
      <stop stop-color="#34D399" />
      <stop offset="1" stop-color="#22D3EE" />
    </linearGradient>
    <linearGradient id="mark-fill" x1="37" y1="34" x2="92" y2="94" gradientUnits="userSpaceOnUse">
      <stop stop-color="#5EEAD4" />
      <stop offset="1" stop-color="#22D3EE" />
    </linearGradient>
  </defs>

  <rect x="8" y="8" width="112" height="112" rx="28" fill="url(#mark-bg)" />
  <rect x="8.75" y="8.75" width="110.5" height="110.5" rx="27.25" stroke="url(#mark-stroke)" stroke-opacity="0.55" stroke-width="1.5" />

  <path d="M36 36C36 33.7909 37.7909 32 40 32H74C76.2091 32 78 33.7909 78 36C78 38.2091 76.2091 40 74 40H44V56H70C72.2091 56 74 57.7909 74 60C74 62.2091 72.2091 64 70 64H44V80H74C76.2091 80 78 81.7909 78 84C78 86.2091 76.2091 88 74 88H40C37.7909 88 36 86.2091 36 84V36Z" fill="url(#mark-fill)" />
  <path d="M58 32H70C85.464 32 98 44.536 98 60C98 75.464 85.464 88 70 88H58V80H69.5C80.2696 80 89 71.2696 89 60.5C89 49.7304 80.2696 41 69.5 41H58V32Z" fill="#34D399" fill-opacity="0.95" />
  <circle cx="90.5" cy="37.5" r="3.5" fill="#67E8F9" />
</svg>
