<svg xmlns="http://www.w3.org/2000/svg" width="180" height="180" viewBox="0 0 180 180">
  <rect width="180" height="180" fill="#071421"/>
  <g fill="#9ddff0" fill-opacity="0.16">
    <circle cx="12" cy="18" r="1"/><circle cx="33" cy="22" r="1"/><circle cx="54" cy="10" r="1"/>
    <circle cx="76" cy="24" r="1"/><circle cx="92" cy="16" r="1"/><circle cx="118" cy="28" r="1"/>
    <circle cx="138" cy="12" r="1"/><circle cx="162" cy="20" r="1"/><circle cx="20" cy="48" r="1"/>
    <circle cx="46" cy="42" r="1"/><circle cx="68" cy="54" r="1"/><circle cx="88" cy="44" r="1"/>
    <circle cx="112" cy="50" r="1"/><circle cx="136" cy="40" r="1"/><circle cx="154" cy="52" r="1"/>
    <circle cx="10" cy="76" r="1"/><circle cx="34" cy="70" r="1"/><circle cx="56" cy="82" r="1"/>
    <circle cx="78" cy="74" r="1"/><circle cx="102" cy="84" r="1"/><circle cx="122" cy="72" r="1"/>
    <circle cx="148" cy="78" r="1"/><circle cx="166" cy="66" r="1"/><circle cx="22" cy="104" r="1"/>
    <circle cx="42" cy="94" r="1"/><circle cx="64" cy="106" r="1"/><circle cx="90" cy="96" r="1"/>
    <circle cx="114" cy="108" r="1"/><circle cx="132" cy="98" r="1"/><circle cx="156" cy="110" r="1"/>
    <circle cx="14" cy="134" r="1"/><circle cx="36" cy="124" r="1"/><circle cx="58" cy="138" r="1"/>
    <circle cx="84" cy="128" r="1"/><circle cx="104" cy="142" r="1"/><circle cx="128" cy="132" r="1"/>
    <circle cx="146" cy="140" r="1"/><circle cx="168" cy="126" r="1"/><circle cx="24" cy="160" r="1"/>
    <circle cx="48" cy="152" r="1"/><circle cx="70" cy="166" r="1"/><circle cx="94" cy="156" r="1"/>
    <circle cx="116" cy="168" r="1"/><circle cx="140" cy="158" r="1"/><circle cx="160" cy="170" r="1"/>
  </g>
</svg>

